<mxfile host="app.diagrams.net" agent="Mozilla/5.0 (Windows NT 10.0; Win64; x64) AppleWebKit/537.36 (KHTML, like Gecko) Chrome/138.0.0.0 Safari/537.36" version="28.0.7">
  <diagram id="C5RBs43oDa-KdzZeNtuy" name="Page-1">
    <mxGraphModel dx="1042" dy="658" grid="1" gridSize="10" guides="1" tooltips="1" connect="1" arrows="1" fold="1" page="1" pageScale="1" pageWidth="827" pageHeight="1169" math="0" shadow="0">
      <root>
        <mxCell id="WIyWlLk6GJQsqaUBKTNV-0" />
        <mxCell id="WIyWlLk6GJQsqaUBKTNV-1" parent="WIyWlLk6GJQsqaUBKTNV-0" />
        <mxCell id="kifro4MC-FqCQrsDPtSm-1" value="SEND EMAIL TO USER" style="ellipse;whiteSpace=wrap;html=1;aspect=fixed;fillColor=#76608a;fontColor=#ffffff;strokeColor=#432D57;" vertex="1" parent="WIyWlLk6GJQsqaUBKTNV-1">
          <mxGeometry x="85" y="585" width="70" height="70" as="geometry" />
        </mxCell>
        <mxCell id="kifro4MC-FqCQrsDPtSm-2" value="FORGOT PASSWORD" style="ellipse;whiteSpace=wrap;html=1;aspect=fixed;fillColor=#76608a;fontColor=#ffffff;strokeColor=#432D57;" vertex="1" parent="WIyWlLk6GJQsqaUBKTNV-1">
          <mxGeometry x="85" y="445" width="70" height="70" as="geometry" />
        </mxCell>
        <mxCell id="kifro4MC-FqCQrsDPtSm-3" value="MANAGE MODULES" style="ellipse;whiteSpace=wrap;html=1;aspect=fixed;fillColor=#76608a;fontColor=#ffffff;strokeColor=#432D57;" vertex="1" parent="WIyWlLk6GJQsqaUBKTNV-1">
          <mxGeometry x="440" y="435" width="80" height="80" as="geometry" />
        </mxCell>
        <mxCell id="kifro4MC-FqCQrsDPtSm-4" value="CHECK CREDENTIALS" style="ellipse;whiteSpace=wrap;html=1;aspect=fixed;fillColor=#76608a;fontColor=#ffffff;strokeColor=#432D57;" vertex="1" parent="WIyWlLk6GJQsqaUBKTNV-1">
          <mxGeometry x="275" y="430" width="90" height="90" as="geometry" />
        </mxCell>
        <mxCell id="kifro4MC-FqCQrsDPtSm-5" value="LOGIN TO SYSTEM" style="ellipse;whiteSpace=wrap;html=1;aspect=fixed;fillColor=#76608a;fontColor=#ffffff;strokeColor=#432D57;" vertex="1" parent="WIyWlLk6GJQsqaUBKTNV-1">
          <mxGeometry x="280" y="310" width="80" height="80" as="geometry" />
        </mxCell>
        <mxCell id="kifro4MC-FqCQrsDPtSm-6" value="CHECK ROLES OF ACCESS" style="ellipse;whiteSpace=wrap;html=1;aspect=fixed;fillColor=#76608a;fontColor=#ffffff;strokeColor=#432D57;" vertex="1" parent="WIyWlLk6GJQsqaUBKTNV-1">
          <mxGeometry x="440" y="310" width="80" height="80" as="geometry" />
        </mxCell>
        <mxCell id="kifro4MC-FqCQrsDPtSm-33" value="" style="edgeStyle=orthogonalEdgeStyle;rounded=0;orthogonalLoop=1;jettySize=auto;html=1;exitX=0.5;exitY=1;exitDx=0;exitDy=0;" edge="1" parent="WIyWlLk6GJQsqaUBKTNV-1" source="kifro4MC-FqCQrsDPtSm-7" target="kifro4MC-FqCQrsDPtSm-2">
          <mxGeometry relative="1" as="geometry" />
        </mxCell>
        <mxCell id="kifro4MC-FqCQrsDPtSm-7" value="ADMIN" style="rounded=0;whiteSpace=wrap;html=1;fillColor=#76608a;fontColor=#ffffff;strokeColor=#432D57;" vertex="1" parent="WIyWlLk6GJQsqaUBKTNV-1">
          <mxGeometry x="60" y="320" width="120" height="60" as="geometry" />
        </mxCell>
        <mxCell id="kifro4MC-FqCQrsDPtSm-9" value="MANAGE USER PERMISSIONS" style="rounded=0;whiteSpace=wrap;html=1;fillColor=#76608a;fontColor=#ffffff;strokeColor=#432D57;" vertex="1" parent="WIyWlLk6GJQsqaUBKTNV-1">
          <mxGeometry x="440" y="680" width="120" height="60" as="geometry" />
        </mxCell>
        <mxCell id="kifro4MC-FqCQrsDPtSm-10" value="MANAGE ROLES OF USERS" style="rounded=0;whiteSpace=wrap;html=1;fillColor=#76608a;fontColor=#ffffff;strokeColor=#432D57;" vertex="1" parent="WIyWlLk6GJQsqaUBKTNV-1">
          <mxGeometry x="250" y="680" width="120" height="60" as="geometry" />
        </mxCell>
        <mxCell id="kifro4MC-FqCQrsDPtSm-11" value="STUDENT INFORMATION SYSYTEM" style="rounded=0;whiteSpace=wrap;html=1;fillColor=#76608a;fontColor=#ffffff;strokeColor=#432D57;" vertex="1" parent="WIyWlLk6GJQsqaUBKTNV-1">
          <mxGeometry x="155" y="140" width="525" height="60" as="geometry" />
        </mxCell>
        <mxCell id="kifro4MC-FqCQrsDPtSm-13" value="MANAGE STUDENT PROFILES" style="rounded=0;whiteSpace=wrap;html=1;fillColor=#76608a;fontColor=#ffffff;strokeColor=#432D57;" vertex="1" parent="WIyWlLk6GJQsqaUBKTNV-1">
          <mxGeometry x="620" y="590" width="190" height="40" as="geometry" />
        </mxCell>
        <mxCell id="kifro4MC-FqCQrsDPtSm-18" value="MANAGE TIMETABLE DETAILS" style="rounded=0;whiteSpace=wrap;html=1;fillColor=#76608a;fontColor=#ffffff;strokeColor=#432D57;" vertex="1" parent="WIyWlLk6GJQsqaUBKTNV-1">
          <mxGeometry x="620" y="240" width="190" height="40" as="geometry" />
        </mxCell>
        <mxCell id="kifro4MC-FqCQrsDPtSm-19" style="edgeStyle=orthogonalEdgeStyle;rounded=0;orthogonalLoop=1;jettySize=auto;html=1;exitX=0.5;exitY=1;exitDx=0;exitDy=0;" edge="1" parent="WIyWlLk6GJQsqaUBKTNV-1">
          <mxGeometry relative="1" as="geometry">
            <mxPoint x="703" y="380" as="sourcePoint" />
            <mxPoint x="703" y="380" as="targetPoint" />
          </mxGeometry>
        </mxCell>
        <mxCell id="kifro4MC-FqCQrsDPtSm-22" value="MANAGE ATTENDANCE&amp;nbsp; DETAILS" style="rounded=0;whiteSpace=wrap;html=1;fillColor=#76608a;fontColor=#ffffff;strokeColor=#432D57;" vertex="1" parent="WIyWlLk6GJQsqaUBKTNV-1">
          <mxGeometry x="620" y="310" width="190" height="40" as="geometry" />
        </mxCell>
        <mxCell id="kifro4MC-FqCQrsDPtSm-23" value="MANAGE CLASS DETAILS" style="rounded=0;whiteSpace=wrap;html=1;fillColor=#76608a;fontColor=#ffffff;strokeColor=#432D57;" vertex="1" parent="WIyWlLk6GJQsqaUBKTNV-1">
          <mxGeometry x="620" y="380" width="190" height="40" as="geometry" />
        </mxCell>
        <mxCell id="kifro4MC-FqCQrsDPtSm-24" value="MANAGE STUDENTS DETAILS" style="rounded=0;whiteSpace=wrap;html=1;fillColor=#76608a;fontColor=#ffffff;strokeColor=#432D57;" vertex="1" parent="WIyWlLk6GJQsqaUBKTNV-1">
          <mxGeometry x="620" y="450" width="190" height="40" as="geometry" />
        </mxCell>
        <mxCell id="kifro4MC-FqCQrsDPtSm-25" value="MANAGE FEE&amp;nbsp; DETAILS" style="rounded=0;whiteSpace=wrap;html=1;fillColor=#76608a;fontColor=#ffffff;strokeColor=#432D57;" vertex="1" parent="WIyWlLk6GJQsqaUBKTNV-1">
          <mxGeometry x="620" y="520" width="190" height="40" as="geometry" />
        </mxCell>
        <mxCell id="kifro4MC-FqCQrsDPtSm-26" value="MANAGE REPORT" style="rounded=0;whiteSpace=wrap;html=1;fillColor=#76608a;fontColor=#ffffff;strokeColor=#432D57;" vertex="1" parent="WIyWlLk6GJQsqaUBKTNV-1">
          <mxGeometry x="620" y="660" width="190" height="40" as="geometry" />
        </mxCell>
        <mxCell id="kifro4MC-FqCQrsDPtSm-27" value="MANAGE SYSTEM ADMINS" style="rounded=0;whiteSpace=wrap;html=1;fillColor=#76608a;fontColor=#ffffff;strokeColor=#432D57;" vertex="1" parent="WIyWlLk6GJQsqaUBKTNV-1">
          <mxGeometry x="60" y="680" width="120" height="60" as="geometry" />
        </mxCell>
        <mxCell id="kifro4MC-FqCQrsDPtSm-31" value="" style="endArrow=classic;html=1;rounded=0;exitX=1;exitY=0.5;exitDx=0;exitDy=0;entryX=0;entryY=0.5;entryDx=0;entryDy=0;" edge="1" parent="WIyWlLk6GJQsqaUBKTNV-1" source="kifro4MC-FqCQrsDPtSm-7" target="kifro4MC-FqCQrsDPtSm-5">
          <mxGeometry width="50" height="50" relative="1" as="geometry">
            <mxPoint x="390" y="470" as="sourcePoint" />
            <mxPoint x="440" y="420" as="targetPoint" />
          </mxGeometry>
        </mxCell>
        <mxCell id="kifro4MC-FqCQrsDPtSm-32" value="" style="endArrow=classic;html=1;rounded=0;exitX=0.5;exitY=1;exitDx=0;exitDy=0;entryX=0.5;entryY=0;entryDx=0;entryDy=0;" edge="1" parent="WIyWlLk6GJQsqaUBKTNV-1" source="kifro4MC-FqCQrsDPtSm-5" target="kifro4MC-FqCQrsDPtSm-4">
          <mxGeometry width="50" height="50" relative="1" as="geometry">
            <mxPoint x="340" y="400" as="sourcePoint" />
            <mxPoint x="400" y="400" as="targetPoint" />
          </mxGeometry>
        </mxCell>
        <mxCell id="kifro4MC-FqCQrsDPtSm-34" value="" style="endArrow=classic;html=1;rounded=0;exitX=0.5;exitY=1;exitDx=0;exitDy=0;entryX=0.5;entryY=0;entryDx=0;entryDy=0;" edge="1" parent="WIyWlLk6GJQsqaUBKTNV-1" source="kifro4MC-FqCQrsDPtSm-2" target="kifro4MC-FqCQrsDPtSm-1">
          <mxGeometry width="50" height="50" relative="1" as="geometry">
            <mxPoint x="199.5" y="525" as="sourcePoint" />
            <mxPoint x="199.5" y="570" as="targetPoint" />
          </mxGeometry>
        </mxCell>
        <mxCell id="kifro4MC-FqCQrsDPtSm-35" value="" style="endArrow=classic;html=1;rounded=0;exitX=0.5;exitY=1;exitDx=0;exitDy=0;entryX=0.5;entryY=0;entryDx=0;entryDy=0;" edge="1" parent="WIyWlLk6GJQsqaUBKTNV-1" source="kifro4MC-FqCQrsDPtSm-6" target="kifro4MC-FqCQrsDPtSm-3">
          <mxGeometry width="50" height="50" relative="1" as="geometry">
            <mxPoint x="510" y="410" as="sourcePoint" />
            <mxPoint x="510" y="455" as="targetPoint" />
          </mxGeometry>
        </mxCell>
        <mxCell id="kifro4MC-FqCQrsDPtSm-36" value="" style="endArrow=classic;html=1;rounded=0;exitX=1;exitY=0.5;exitDx=0;exitDy=0;entryX=0;entryY=0.625;entryDx=0;entryDy=0;entryPerimeter=0;" edge="1" parent="WIyWlLk6GJQsqaUBKTNV-1" source="kifro4MC-FqCQrsDPtSm-4" target="kifro4MC-FqCQrsDPtSm-6">
          <mxGeometry width="50" height="50" relative="1" as="geometry">
            <mxPoint x="430" y="400" as="sourcePoint" />
            <mxPoint x="480" y="350" as="targetPoint" />
          </mxGeometry>
        </mxCell>
        <mxCell id="kifro4MC-FqCQrsDPtSm-38" value="" style="endArrow=classic;html=1;rounded=0;entryX=0;entryY=0.5;entryDx=0;entryDy=0;exitX=0.665;exitY=0.035;exitDx=0;exitDy=0;exitPerimeter=0;" edge="1" parent="WIyWlLk6GJQsqaUBKTNV-1" source="kifro4MC-FqCQrsDPtSm-3" target="kifro4MC-FqCQrsDPtSm-18">
          <mxGeometry width="50" height="50" relative="1" as="geometry">
            <mxPoint x="520" y="470" as="sourcePoint" />
            <mxPoint x="570" y="420" as="targetPoint" />
          </mxGeometry>
        </mxCell>
        <mxCell id="kifro4MC-FqCQrsDPtSm-39" value="" style="endArrow=classic;html=1;rounded=0;exitX=0.695;exitY=0.975;exitDx=0;exitDy=0;entryX=0;entryY=0.5;entryDx=0;entryDy=0;exitPerimeter=0;" edge="1" parent="WIyWlLk6GJQsqaUBKTNV-1" source="kifro4MC-FqCQrsDPtSm-3" target="kifro4MC-FqCQrsDPtSm-26">
          <mxGeometry width="50" height="50" relative="1" as="geometry">
            <mxPoint x="510" y="520" as="sourcePoint" />
            <mxPoint x="510" y="565" as="targetPoint" />
          </mxGeometry>
        </mxCell>
        <mxCell id="kifro4MC-FqCQrsDPtSm-40" value="" style="endArrow=classic;html=1;rounded=0;entryX=0;entryY=0.5;entryDx=0;entryDy=0;exitX=1;exitY=0;exitDx=0;exitDy=0;" edge="1" parent="WIyWlLk6GJQsqaUBKTNV-1" source="kifro4MC-FqCQrsDPtSm-3" target="kifro4MC-FqCQrsDPtSm-22">
          <mxGeometry width="50" height="50" relative="1" as="geometry">
            <mxPoint x="510" y="440" as="sourcePoint" />
            <mxPoint x="550" y="525" as="targetPoint" />
          </mxGeometry>
        </mxCell>
        <mxCell id="kifro4MC-FqCQrsDPtSm-42" value="" style="endArrow=classic;html=1;rounded=0;entryX=0;entryY=0.5;entryDx=0;entryDy=0;" edge="1" parent="WIyWlLk6GJQsqaUBKTNV-1" source="kifro4MC-FqCQrsDPtSm-3" target="kifro4MC-FqCQrsDPtSm-23">
          <mxGeometry width="50" height="50" relative="1" as="geometry">
            <mxPoint x="580" y="520" as="sourcePoint" />
            <mxPoint x="550" y="505" as="targetPoint" />
          </mxGeometry>
        </mxCell>
        <mxCell id="kifro4MC-FqCQrsDPtSm-43" value="" style="endArrow=classic;html=1;rounded=0;entryX=0;entryY=0.5;entryDx=0;entryDy=0;" edge="1" parent="WIyWlLk6GJQsqaUBKTNV-1" target="kifro4MC-FqCQrsDPtSm-24">
          <mxGeometry width="50" height="50" relative="1" as="geometry">
            <mxPoint x="520" y="467" as="sourcePoint" />
            <mxPoint x="550" y="525" as="targetPoint" />
          </mxGeometry>
        </mxCell>
        <mxCell id="kifro4MC-FqCQrsDPtSm-44" value="" style="endArrow=classic;html=1;rounded=0;exitX=0.975;exitY=0.645;exitDx=0;exitDy=0;entryX=0;entryY=0.5;entryDx=0;entryDy=0;exitPerimeter=0;" edge="1" parent="WIyWlLk6GJQsqaUBKTNV-1" source="kifro4MC-FqCQrsDPtSm-3" target="kifro4MC-FqCQrsDPtSm-25">
          <mxGeometry width="50" height="50" relative="1" as="geometry">
            <mxPoint x="560" y="500" as="sourcePoint" />
            <mxPoint x="560" y="545" as="targetPoint" />
          </mxGeometry>
        </mxCell>
        <mxCell id="kifro4MC-FqCQrsDPtSm-45" value="" style="endArrow=classic;html=1;rounded=0;exitX=1;exitY=1;exitDx=0;exitDy=0;entryX=0;entryY=0.5;entryDx=0;entryDy=0;" edge="1" parent="WIyWlLk6GJQsqaUBKTNV-1" source="kifro4MC-FqCQrsDPtSm-3" target="kifro4MC-FqCQrsDPtSm-13">
          <mxGeometry width="50" height="50" relative="1" as="geometry">
            <mxPoint x="570" y="560" as="sourcePoint" />
            <mxPoint x="570" y="605" as="targetPoint" />
          </mxGeometry>
        </mxCell>
        <mxCell id="kifro4MC-FqCQrsDPtSm-46" value="" style="endArrow=classic;html=1;rounded=0;exitX=0.595;exitY=1.015;exitDx=0;exitDy=0;entryX=0.5;entryY=0;entryDx=0;entryDy=0;exitPerimeter=0;" edge="1" parent="WIyWlLk6GJQsqaUBKTNV-1" source="kifro4MC-FqCQrsDPtSm-3" target="kifro4MC-FqCQrsDPtSm-9">
          <mxGeometry width="50" height="50" relative="1" as="geometry">
            <mxPoint x="470" y="550" as="sourcePoint" />
            <mxPoint x="470" y="595" as="targetPoint" />
          </mxGeometry>
        </mxCell>
        <mxCell id="kifro4MC-FqCQrsDPtSm-47" value="" style="endArrow=classic;html=1;rounded=0;entryX=0.5;entryY=0;entryDx=0;entryDy=0;exitX=0.345;exitY=1.005;exitDx=0;exitDy=0;exitPerimeter=0;" edge="1" parent="WIyWlLk6GJQsqaUBKTNV-1" source="kifro4MC-FqCQrsDPtSm-3" target="kifro4MC-FqCQrsDPtSm-10">
          <mxGeometry width="50" height="50" relative="1" as="geometry">
            <mxPoint x="468" y="520" as="sourcePoint" />
            <mxPoint x="440" y="595" as="targetPoint" />
            <Array as="points" />
          </mxGeometry>
        </mxCell>
        <mxCell id="kifro4MC-FqCQrsDPtSm-48" value="" style="endArrow=classic;html=1;rounded=0;exitX=0;exitY=1;exitDx=0;exitDy=0;entryX=0.5;entryY=0;entryDx=0;entryDy=0;" edge="1" parent="WIyWlLk6GJQsqaUBKTNV-1" source="kifro4MC-FqCQrsDPtSm-3" target="kifro4MC-FqCQrsDPtSm-27">
          <mxGeometry width="50" height="50" relative="1" as="geometry">
            <mxPoint x="390" y="520" as="sourcePoint" />
            <mxPoint x="390" y="565" as="targetPoint" />
          </mxGeometry>
        </mxCell>
      </root>
    </mxGraphModel>
  </diagram>
</mxfile>
